<svg width="120" height="75" viewBox="0 0 120 75" fill="none" xmlns="http://www.w3.org/2000/svg">
<path d="M89.3457 36.1486C89.3457 36.1486 95.3906 29.3632 101.401 30.6089C107.411 31.8547 108.462 32.9052 108.462 32.9052C108.462 32.9052 117.681 30.7639 117.785 31.9465C117.888 33.1291 114.914 39.1337 114.914 39.1337C115.785 40.707 116.268 42.4658 116.321 44.2634C116.373 46.0609 115.996 47.8451 115.219 49.4668C115.219 49.4668 122.371 56.1317 119.18 57.8309C115.988 59.5301 109.174 57.3028 109.174 57.3028C109.174 57.3028 95.115 70.8851 82.7669 73.4511C70.4189 76.0172 55.4129 69.5647 50.2521 64.3178C44.7871 58.7666 40.1773 43.8066 41.2566 43.0431C42.8295 41.9409 40.1486 33.8122 50.4416 26.3953C60.7345 18.9785 59.8275 14.6902 59.8275 14.6902L63.8459 13.3297C63.8459 13.3297 59.7184 26.1255 65.6944 34.3346C71.6704 42.5437 82.2733 46.4932 89.3457 36.1486Z" fill="#FFA542"/>
<g opacity="0.2">
<path d="M101.315 30.4712C100.153 30.8995 99.1506 31.6752 98.4445 32.6928C98.1006 33.2002 97.8774 33.7795 97.7918 34.3864C97.7062 34.9934 97.7606 35.6119 97.9509 36.1946C98.1577 36.7726 98.5352 37.2742 99.0334 37.633C99.5316 37.9918 100.127 38.1908 100.741 38.2038C102.187 38.1636 103.611 36.9523 104.943 37.5723C105.752 37.9569 106.125 38.8984 106.809 39.4782C107.098 39.7006 107.43 39.8598 107.784 39.9457C108.139 40.0315 108.507 40.0421 108.866 39.9766C109.225 39.9111 109.566 39.7711 109.867 39.5656C110.168 39.3601 110.423 39.0937 110.615 38.7836C110.824 38.3515 110.933 37.8775 110.933 37.3972C110.933 36.9169 110.824 36.4429 110.615 36.0109C110.189 35.147 109.578 34.3882 108.824 33.7892C106.639 31.9308 103.913 30.8256 101.051 30.6376" fill="white"/>
</g>
<path d="M43.2259 41.4932C42.2614 39.9604 38.0593 40.9191 36.5495 41.895C35.0398 42.8709 34.0639 44.4955 33.1052 46.0225C31.693 48.2326 30.0512 50.3739 27.8468 51.8033C25.6424 53.2327 22.795 53.8699 20.3438 52.9514C17.8925 52.0329 16.2105 49.6104 14.6663 47.4117C13.1221 45.2131 11.3138 42.9168 8.7133 42.2452C5.14838 41.3152 1.3194 44.1281 0.389417 47.693C-0.540562 51.2579 0.963481 55.1271 3.47787 57.8195C7.61685 62.257 14.3219 63.8471 20.229 62.4119C26.1361 60.9768 31.1763 56.8665 34.3968 51.7229C35.6138 49.7769 36.6242 47.6471 38.2889 46.0684C39.9537 44.4898 42.5427 43.5655 44.6036 44.6218" fill="#FFA542"/>
<path d="M96.2978 37.4575C96.3408 38.3346 96.0471 39.195 95.4769 39.8628C95.695 39.5069 95.3391 39.0821 95.0176 38.818C94.6961 38.5539 94.3345 38.1464 94.5354 37.7847C94.8454 37.2106 95.8787 37.7847 96.3207 37.3197" fill="#263238"/>
<path d="M95.0061 34.3977C95.0061 34.4437 94.765 34.6044 94.3574 34.8742C93.8241 35.181 93.4172 35.6672 93.2093 36.2462C93.1357 36.5293 93.1545 36.8284 93.2629 37.1C93.3714 37.3716 93.5638 37.6014 93.812 37.756C94.2139 37.9971 94.5353 37.9741 94.5353 38.0316C94.5353 38.089 94.2081 38.1808 93.703 37.9627C93.4114 37.8255 93.1719 37.598 93.0198 37.314C92.8317 36.9619 92.7845 36.5515 92.8878 36.1659C92.9984 35.8395 93.1747 35.5392 93.4057 35.2835C93.6367 35.0279 93.9176 34.8221 94.2311 34.679C94.4651 34.5285 94.7299 34.4323 95.0061 34.3977Z" fill="#263238"/>
<path d="M99.4092 42.9111C99.5661 42.9064 99.7197 42.957 99.8433 43.0538C99.9669 43.1507 100.053 43.2878 100.086 43.4413C100.119 43.5948 100.097 43.7551 100.024 43.8942C99.9511 44.0332 99.8317 44.1424 99.6867 44.2027C99.5417 44.2629 99.3802 44.2705 99.2302 44.224C99.0802 44.1775 98.9512 44.08 98.8657 43.9483C98.7802 43.8166 98.7435 43.6591 98.762 43.5032C98.7805 43.3473 98.8531 43.2028 98.9671 43.0948" fill="#263238"/>
<path d="M100 33.95C100.157 33.9453 100.311 33.9958 100.435 34.0927C100.558 34.1896 100.644 34.3267 100.677 34.4802C100.71 34.6337 100.688 34.794 100.615 34.933C100.542 35.0721 100.423 35.1813 100.278 35.2416C100.133 35.3018 99.9715 35.3094 99.8215 35.2629C99.6715 35.2164 99.5426 35.1189 99.457 34.9872C99.3715 34.8555 99.3348 34.698 99.3533 34.5421C99.3719 34.3862 99.4444 34.2416 99.5584 34.1337" fill="#263238"/>
<path d="M78.3927 41.9983C89.9902 41.9983 99.3919 32.5967 99.3919 20.9992C99.3919 9.40164 89.9902 0 78.3927 0C66.7952 0 57.3936 9.40164 57.3936 20.9992C57.3936 32.5967 66.7952 41.9983 78.3927 41.9983Z" fill="#455A64"/>
<path d="M91.3321 43.2498C91.2378 38.3955 89.4533 33.7262 86.2861 30.0464C85.2528 28.8581 83.9899 27.7501 82.4686 27.3999C80.9473 27.0498 79.0759 27.7329 78.5477 29.2197C78.0598 30.6147 78.8348 32.09 79.4605 33.4391C81.6239 38.0868 82.2046 43.3153 81.1138 48.3245" fill="#FFA542"/>
<path d="M90.9762 43.0661C90.963 42.9248 90.963 42.7826 90.9762 42.6413C90.9762 42.3657 90.9762 41.9639 90.9417 41.4415C90.8509 39.9748 90.6046 38.5219 90.2069 37.1073C89.616 35.0098 88.6767 33.0266 87.4285 31.2404C86.7371 30.1683 85.8465 29.2388 84.805 28.5021C84.2534 28.1321 83.6323 27.8782 82.9795 27.7559C82.3097 27.6435 81.6224 27.7028 80.9818 27.9281C80.3442 28.144 79.798 28.5688 79.4318 29.1336C79.112 29.7044 78.9757 30.3598 79.0414 31.0108C79.241 32.2766 79.568 33.5191 80.0173 34.7192C80.7381 36.7942 81.2759 38.9283 81.6247 41.097C81.8467 42.5679 81.8467 44.0637 81.6247 45.5345C81.5622 45.9335 81.4759 46.3284 81.3664 46.7171C81.3308 46.8533 81.2827 46.9858 81.2229 47.1132C81.1884 47.1132 81.3721 46.5391 81.4984 45.5173C81.6661 44.0572 81.6274 42.5808 81.3836 41.1315C80.9981 38.9832 80.4335 36.871 79.6959 34.8168L79.1218 33.0085C78.909 32.3699 78.7685 31.7094 78.7027 31.0395C78.6252 30.3206 78.7758 29.5956 79.1333 28.9671C79.539 28.3375 80.146 27.864 80.8555 27.6238C81.5486 27.376 82.294 27.3107 83.0197 27.4344C83.7162 27.5673 84.3784 27.8407 84.9657 28.2381C86.037 29.0011 86.9528 29.9617 87.6638 31.0682C89.7678 34.1279 90.9438 37.7298 91.0508 41.4415C91.0508 41.9696 91.0508 42.3772 91.0508 42.6527C91.0415 42.7929 91.0165 42.9315 90.9762 43.0661Z" fill="#263238"/>
<path d="M81.1886 32.2393C80.794 31.7807 80.4423 31.2868 80.1381 30.7639C79.7452 30.2971 79.3955 29.7956 79.0933 29.2656C80.127 29.9824 80.8702 31.0453 81.1886 32.2622V32.2393Z" fill="#263238"/>
<path d="M82.5834 30.8443C82.1449 30.4325 81.7593 29.9677 81.4353 29.4608C81.0249 29.0212 80.6719 28.5312 80.3848 28.0027C80.4479 27.9396 81.0794 28.462 81.6936 29.2599C82.1095 29.7116 82.4142 30.2541 82.5834 30.8443Z" fill="#263238"/>
<path d="M84.248 30.3965C84.1504 30.3965 83.9954 29.6904 83.5878 28.8982C83.1802 28.106 82.698 27.5435 82.7669 27.4746C83.2721 27.7605 83.6649 28.21 83.8806 28.749C84.191 29.2387 84.3209 29.8213 84.248 30.3965Z" fill="#263238"/>
<path d="M47.1121 40.523C48.5549 39.4902 49.6662 38.0601 50.3104 36.4067C50.9546 34.7534 51.1039 32.9484 50.7401 31.2117C50.5242 30.6877 50.5242 30.0996 50.7401 29.5756C51.2109 28.8351 52.2901 29.214 53.1512 29.3403C57.9561 30.0291 66.722 29.6158 66.722 29.6158C69.6727 29.3403 74.2651 28.858 74.2651 28.858C72.055 32.5607 66.8024 35.3449 62.8126 35.2818C64.4098 36.6553 65.7864 38.2662 66.8942 40.058C68.8254 43.0982 69.6823 46.6978 69.3282 50.282C69.1349 52.0597 68.556 53.7737 67.6319 55.3046C66.7078 56.8355 65.4609 58.1463 63.978 59.1455C60.9756 61.0629 56.9055 61.3384 53.8228 59.5474" fill="#FFA542"/>
<path d="M57.8757 60.7873C58.7244 60.7489 59.5679 60.6336 60.3958 60.4429C62.6671 59.8188 64.6863 58.5001 66.1708 56.6713C67.834 54.7184 68.8279 52.2841 69.0067 49.7252C69.0612 48.761 69.0208 47.7939 68.8861 46.8377C68.7533 45.8139 68.5245 44.8048 68.203 43.8238C67.8794 42.7893 67.4624 41.7863 66.9573 40.8272C65.9105 38.7761 64.4688 36.952 62.715 35.4598L62.405 35.1957H62.8126C65.5216 35.0983 68.1571 34.2885 70.4533 32.8478C71.9951 31.8387 73.2569 30.4565 74.1216 28.8294L74.2881 29.0647C66.3484 29.9344 58.3434 30.0362 50.3842 29.369L50.5047 29.214C51.04 30.867 51.1893 32.6207 50.941 34.3403C50.7678 35.6337 50.3797 36.889 49.7929 38.0545C49.4186 38.7862 48.9663 39.4753 48.4438 40.1097C48.2601 40.3221 48.1109 40.4771 48.0133 40.5804L47.8525 40.7354C47.8919 40.6727 47.936 40.6133 47.9846 40.5574C48.0764 40.4484 48.2199 40.2876 48.3922 40.0695C48.8869 39.4219 49.3175 38.7279 49.678 37.9971C50.2387 36.8382 50.6053 35.5951 50.763 34.3174C50.9858 32.6266 50.8229 30.9074 50.2866 29.2886L50.2292 29.1221H50.4071C58.3509 29.7293 66.3339 29.5986 74.2536 28.7318L74.5693 28.6916L74.4201 28.9671C73.5264 30.6344 72.2274 32.0499 70.6428 33.0832C68.2983 34.5593 65.6043 35.3873 62.8355 35.4827L62.9274 35.1957C65.5364 37.464 67.4625 40.4138 68.49 43.7148C68.8145 44.7126 69.0432 45.7391 69.1732 46.7802C69.305 47.7657 69.3377 48.7619 69.2708 49.7539C69.2035 50.6857 69.0282 51.6066 68.7484 52.4979C68.2399 54.0859 67.4181 55.5558 66.3316 56.8206C64.8105 58.6671 62.7385 59.9787 60.4187 60.5635C60.2178 60.6094 60.0284 60.6611 59.8447 60.6955L59.328 60.7529L58.8917 60.8103H58.0364L57.8757 60.7873Z" fill="#263238"/>
<path d="M68.645 32.0498C69.3637 31.8024 70.041 31.4483 70.6542 30.9993C71.6244 30.1899 71.9286 29.1566 72.0262 29.191C72.1238 29.2255 72.0262 29.4723 71.8827 29.8799C71.6559 30.4103 71.3079 30.8802 70.8666 31.2519C70.4294 31.6245 69.91 31.8881 69.3511 32.0211C68.9206 32.1187 68.645 32.09 68.645 32.0498Z" fill="#263238"/>
<path d="M93.3471 41.4931C93.3471 41.5333 92.9912 41.4931 92.6353 41.1257C92.4327 40.8926 92.303 40.6052 92.2621 40.2991C92.2185 39.9267 92.2843 39.5497 92.4516 39.2141C92.5999 38.9145 92.8118 38.6508 93.0726 38.4416C93.3334 38.2324 93.6367 38.0827 93.9614 38.0028C94.455 37.8938 94.765 38.0028 94.7593 38.0028C94.7536 38.0028 94.4608 38.0545 94.0302 38.2153C93.4709 38.4177 93.012 38.8293 92.7501 39.3634C92.6154 39.6146 92.5508 39.8974 92.5629 40.1822C92.575 40.467 92.6634 40.7433 92.819 40.9822C93.0716 41.3496 93.3643 41.4472 93.3471 41.4931Z" fill="#263238"/>
<g opacity="0.3">
<path d="M116.109 31.5561C116.774 31.5848 114.576 33.8237 113.652 34.834C113.336 35.2657 112.868 35.5612 112.343 35.6607C111.913 35.6442 111.5 35.4891 111.166 35.2186C110.277 34.6172 109.488 33.8791 108.829 33.0315L108.68 32.8535C108.68 32.8535 114.719 31.493 116.109 31.5561Z" fill="black"/>
</g>
<g opacity="0.3">
<path d="M113.198 51.367C111.562 52.5407 110.353 54.2153 109.754 56.1375C111.775 57.1336 114.051 57.4939 116.281 57.1708C116.508 57.1639 116.732 57.1092 116.936 57.0103C117.141 56.9114 117.323 56.7705 117.469 56.5967C117.802 56.0915 117.527 55.4084 117.188 54.909C116.178 53.4221 114.674 52.3659 113.198 51.344" fill="black"/>
</g>
<path d="M91.9921 56.3556C91.9405 56.3556 92.2906 55.4773 92.7441 54.0593C93.9264 50.3524 94.4415 46.465 94.2654 42.5781C94.2023 41.0913 94.0874 40.1728 94.1391 40.1613C94.2162 40.3664 94.2664 40.5806 94.2884 40.7985C94.363 41.2119 94.4376 41.8146 94.5008 42.5609C94.8053 46.4781 94.2811 50.4156 92.9623 54.1167C92.7682 54.6768 92.546 55.2267 92.2964 55.7643C92.2232 55.9747 92.1208 56.1738 91.9921 56.3556Z" fill="#263238"/>
<path d="M96.0049 54.444C95.9533 54.444 96.0968 53.6632 96.2403 52.4061C96.6054 49.1345 96.4113 45.8247 95.6662 42.6183C95.385 41.3841 95.1496 40.6321 95.2013 40.6148C95.3028 40.7707 95.3802 40.941 95.4309 41.12C95.5629 41.453 95.7236 41.9466 95.8959 42.5609C96.778 45.7774 96.9736 49.1435 96.4699 52.4405C96.3723 53.0662 96.269 53.5886 96.1772 53.9158C96.15 54.1003 96.0917 54.2789 96.0049 54.444Z" fill="#263238"/>
<path d="M94.3459 33.0602C94.6031 33.6185 94.7175 34.232 94.6788 34.8455C94.7478 35.4547 94.667 36.0715 94.4435 36.6423C94.3459 36.0525 94.3151 35.4537 94.3516 34.857C94.2796 34.2603 94.2777 33.6573 94.3459 33.0602Z" fill="#263238"/>
<g opacity="0.2">
<path d="M100.109 64.8C99.8511 63.2386 97.5548 60.6323 95.9704 60.6783C94.386 60.7242 92.9336 61.4934 91.51 62.188C90.0863 62.8826 88.5306 63.5256 86.9634 63.3017C84.9484 63.0089 83.3813 61.3557 81.4122 60.8333C80.5669 60.6398 79.6907 60.6225 78.8383 60.7825C77.986 60.9425 77.1757 61.2763 76.4581 61.7632C75.0257 62.7521 73.8618 64.0817 73.0711 65.6324C72.2273 67.1766 71.636 68.8701 70.551 70.2536C69.466 71.6371 67.6807 72.9402 65.9585 72.4867C65.9585 72.4867 76.9805 76.0688 85.8669 72.8082C92.4227 70.4201 100.109 64.8 100.109 64.8Z" fill="white"/>
</g>
<g opacity="0.2">
<path d="M89.8336 36.2634C89.1393 36.1639 88.431 36.2452 87.7773 36.4995C87.1235 36.7538 86.5465 37.1726 86.102 37.7152C85.6575 38.2578 85.3606 38.906 85.2399 39.597C85.1193 40.288 85.179 40.9985 85.4134 41.6596C85.641 42.1393 85.818 42.6415 85.9415 43.1579C86.0793 44.1568 85.465 45.0925 85.3273 46.0856C85.2626 46.5313 85.3038 46.9859 85.4474 47.4128C85.591 47.8396 85.833 48.2266 86.1539 48.5426C86.4832 48.8492 86.8938 49.0545 87.3366 49.1339C87.7795 49.2133 88.2358 49.1635 88.6511 48.9904C89.6557 48.5369 90.1436 47.3945 90.4249 46.3325C91.2939 43.0036 91.0603 39.4827 89.759 36.2979" fill="white"/>
</g>
<g opacity="0.2">
<path d="M47.0719 60.7529C49.1537 61.166 51.3016 61.1077 53.3579 60.5822C55.4142 60.0567 57.3267 59.0774 58.955 57.7161C60.6313 56.2924 62.0033 54.3693 62.2673 52.1822C62.5314 49.995 61.4522 47.5897 59.397 46.7343C56.6702 45.5862 53.4785 47.5208 50.6369 46.7343C49.4685 46.3076 48.3857 45.6758 47.4393 44.8686C46.489 44.0634 45.3523 43.5088 44.1327 43.2555C42.9042 43.1005 41.4921 43.6688 41.0845 44.8457V45.8445C42.3359 49.9433 44.5805 55.2017 47.0719 60.7529Z" fill="white"/>
</g>
<g opacity="0.2">
<path d="M12.6283 62.5899C13.3408 62.723 14.0744 62.6906 14.7724 62.4952C15.4704 62.2997 16.1142 61.9465 16.654 61.4627C17.1938 60.979 17.6152 60.3776 17.8857 59.7051C18.1562 59.0326 18.2684 58.3069 18.2139 57.5841C18.1863 57.2984 18.1246 57.017 18.0302 56.746C17.2897 54.731 15.5158 53.0203 13.386 52.7734C12.1231 52.6242 10.7741 52.9801 9.59723 52.4979C8.42041 52.0157 7.63968 50.6839 7.2034 49.4152C6.76711 48.1465 6.48581 46.786 5.69935 45.6953C4.91289 44.6046 3.40311 43.887 2.20907 44.5472C2.20907 44.5472 -1.66011 47.9915 0.842797 53.7034C2.86923 58.2787 6.73266 61.5853 12.6283 62.5899Z" fill="white"/>
</g>
<path d="M91.3722 6.01042C91.3259 6.13905 91.2621 6.26074 91.1828 6.37208L90.5743 7.37094C90.2608 7.90127 89.9197 8.4148 89.5525 8.90942C89.1277 9.48348 88.6742 10.1838 88.0886 10.8784L87.1931 11.9864C86.8831 12.371 86.5214 12.7442 86.1655 13.1345C85.4709 13.9439 84.6442 14.7304 83.7889 15.5743C81.8834 17.3578 79.8412 18.9893 77.6809 20.4538C75.501 21.8878 73.211 23.1471 70.8323 24.2196C69.7244 24.6846 68.6796 25.1496 67.6635 25.4826C67.1583 25.6548 66.6761 25.8442 66.1997 25.9877L64.8334 26.3896C63.9666 26.6651 63.1571 26.8144 62.4568 26.9637C61.8586 27.1132 61.2531 27.232 60.6427 27.3196L59.4946 27.4975C59.3623 27.5237 59.2277 27.5372 59.0928 27.5377C59.2206 27.4874 59.3534 27.4509 59.4889 27.4286L60.637 27.1933C61.1364 27.1014 61.7449 26.9751 62.4396 26.7857C63.1342 26.5963 63.9321 26.4355 64.7932 26.1485L66.148 25.7294C66.6187 25.5802 67.0952 25.385 67.5946 25.207C68.5992 24.8626 69.6325 24.3976 70.7347 23.9269C75.4659 21.781 79.8121 18.8719 83.5994 15.3159C84.4548 14.4778 85.2872 13.7028 85.9875 12.9049C86.3435 12.5145 86.7051 12.1471 87.0266 11.7568L87.9279 10.666C88.5019 9.98292 88.9899 9.31127 89.4262 8.73721C89.8625 8.16315 90.2126 7.65798 90.4882 7.23317L91.1483 6.27448C91.2173 6.18179 91.2921 6.09359 91.3722 6.01042Z" fill="#263238"/>
<path d="M75.775 21.866C75.5862 21.6459 75.4171 21.4096 75.2698 21.1599C75.1148 20.9245 74.9311 20.6318 74.7417 20.2816C74.5522 19.9314 74.3168 19.541 74.1159 19.0818C73.6028 18.0203 73.1729 16.9205 72.83 15.7924C72.4216 14.4051 72.1297 12.986 71.9575 11.5501C71.8055 10.1143 71.7748 8.66834 71.8656 7.22743C71.9513 6.05057 72.1259 4.88189 72.388 3.7314C72.4856 3.2377 72.6291 2.80716 72.7382 2.42254C72.8272 2.09154 72.9345 1.76574 73.0597 1.44663C73.1447 1.16869 73.2562 0.899567 73.3926 0.642944C73.4558 0.642944 73.0137 1.82551 72.6176 3.78306C72.3877 4.91924 72.2381 6.07022 72.1699 7.22743C72.0031 10.0817 72.3254 12.9434 73.1228 15.6891C73.4468 16.8088 73.8497 17.9042 74.3283 18.967C75.1148 20.7982 75.8037 21.8315 75.775 21.866Z" fill="#263238"/>
<path d="M81.3781 16.9405C81.2121 16.7826 81.0656 16.6052 80.9418 16.4124C80.56 15.9124 80.2128 15.3869 79.9028 14.8395C79.434 14.0292 79.0308 13.1826 78.6972 12.3079C78.2954 11.2341 77.9862 10.1278 77.773 9.00127C77.5744 7.86381 77.4726 6.71156 77.4688 5.5569C77.4725 4.62023 77.5512 3.68535 77.7041 2.76123C77.801 2.13802 77.941 1.5223 78.1232 0.918498C78.1742 0.693294 78.2533 0.475367 78.3585 0.269806C78.4159 0.269806 78.1404 1.22848 77.9337 2.79567C77.8209 3.70976 77.7672 4.63016 77.773 5.55116C77.7863 6.6899 77.8861 7.82598 78.0715 8.94961C78.2833 10.0598 78.5808 11.1518 78.9613 12.216C79.2835 13.0823 79.6672 13.9245 80.1094 14.7361C80.8327 16.1196 81.4298 16.9004 81.3781 16.9405Z" fill="#263238"/>
<path d="M86.6018 12.1356C86.1894 11.7194 85.8395 11.2457 85.5628 10.7292C84.8448 9.50915 84.3164 8.18711 83.9956 6.80835C83.6748 5.42833 83.5683 4.00716 83.6798 2.59474C83.6991 2.0082 83.8055 1.42779 83.9956 0.872559C84.053 0.872559 83.9497 1.53847 83.9152 2.59474C83.8218 5.3804 84.4612 8.14179 85.7694 10.6029C86.2689 11.5558 86.6477 12.1012 86.6018 12.1356Z" fill="#263238"/>
<path d="M96.8718 10.425C96.8237 10.5601 96.7602 10.6891 96.6824 10.8096L96.0739 11.9003C95.8155 12.371 95.4998 12.9451 95.052 13.5823C94.6043 14.2195 94.1737 14.9715 93.5882 15.7408L92.6926 16.9865C92.3827 17.4113 92.021 17.8303 91.6651 18.2724C90.9647 19.1736 90.1381 20.0634 89.277 21.0106C87.3665 23.0235 85.3117 24.8942 83.1288 26.6077C80.9254 28.3044 78.602 29.8393 76.1769 31.2002C75.0288 31.7743 73.9725 32.3771 72.9277 32.8306C72.4111 33.0602 71.9174 33.307 71.4294 33.508L70.0172 34.082C69.1274 34.4552 68.295 34.7077 67.566 34.9603C66.8369 35.2129 66.2055 35.3966 65.6773 35.5344L64.4775 35.8501C64.3395 35.8943 64.1971 35.9232 64.0527 35.9362C64.1839 35.8746 64.3203 35.8246 64.4603 35.787L65.6429 35.4081C66.1595 35.2531 66.791 35.0579 67.5028 34.7824C68.2147 34.5068 69.0528 34.2542 69.9311 33.8639L71.3261 33.2898C71.814 33.0831 72.302 32.8363 72.8129 32.5952C73.8462 32.1359 74.9025 31.5447 76.0277 30.9476C78.4256 29.588 80.7273 28.065 82.9164 26.3896C85.0837 24.6805 87.1321 22.8258 89.0474 20.8384C89.9027 19.9027 90.7351 19.0244 91.4412 18.1403C91.7971 17.6983 92.1645 17.2907 92.4802 16.8717L93.3873 15.6661C93.9613 14.9084 94.4493 14.1678 94.8856 13.5421C95.3218 12.9164 95.6778 12.3538 95.9533 11.8946C96.2289 11.4353 96.4413 11.1138 96.6135 10.844C96.6862 10.6965 96.7727 10.5562 96.8718 10.425Z" fill="#263238"/>
<path d="M99.7364 13.2723C99.7079 13.4109 99.6636 13.5457 99.6044 13.6741C99.4896 13.9669 99.3346 14.3401 99.1509 14.8223L98.8179 15.6432C98.6859 15.9359 98.5252 16.2459 98.3644 16.5846C98.0257 17.2563 97.6756 18.0427 97.1819 18.8809L96.4413 20.1266C96.183 20.5744 95.8673 21.0164 95.5688 21.4814C94.9947 22.4286 94.2427 23.37 93.4906 24.3517C90.1193 28.6436 85.9835 32.2753 81.2918 35.0637C80.1954 35.6779 79.1678 36.2864 78.1517 36.7514C77.6523 36.9868 77.1758 37.2394 76.6993 37.4403L75.3216 38.0143C74.4548 38.399 73.6281 38.6401 72.9163 38.8926C72.5604 39.0075 72.2332 39.128 71.9232 39.2199L71.0678 39.4437L69.891 39.748C69.7543 39.7887 69.6139 39.8156 69.4719 39.8284C69.6006 39.7654 69.7352 39.7154 69.8738 39.6791L71.0219 39.3232L71.8658 39.0706C72.17 38.9673 72.4915 38.841 72.8474 38.7147C73.5478 38.4506 74.3629 38.1923 75.2183 37.7962L76.5788 37.2221C77.0495 37.0155 77.5203 36.7571 78.0197 36.516C79.0243 36.0453 80.0404 35.4311 81.1196 34.7938C85.7633 32.002 89.8679 28.3991 93.2381 24.1565C93.9958 23.1634 94.7306 22.2391 95.3276 21.2862C95.6319 20.8212 95.9476 20.3907 96.2117 19.9486L96.9695 18.6742C97.4746 17.8763 97.8306 17.1013 98.1865 16.4411C98.3529 16.1081 98.5252 15.7982 98.6629 15.5111C98.8007 15.2241 98.9098 14.9371 99.0246 14.7074C99.2313 14.2539 99.3977 13.8865 99.5298 13.6052C99.5908 13.4896 99.6599 13.3783 99.7364 13.2723Z" fill="#263238"/>
<path d="M73.249 16.9865C72.5877 16.772 71.9381 16.5229 71.3029 16.2402C68.1856 15.0083 64.9264 14.1714 61.6013 13.7487C60.9079 13.6921 60.218 13.5982 59.5347 13.4675C59.723 13.4257 59.9168 13.4141 60.1087 13.433C60.4704 13.433 60.9928 13.4617 61.6357 13.5134C65.0026 13.8188 68.298 14.6659 71.3948 16.022C71.9688 16.2861 72.4568 16.5157 72.7783 16.688C72.9488 16.7641 73.1074 16.8647 73.249 16.9865Z" fill="#263238"/>
<path d="M72.6464 9.85089C72.6005 9.94274 70.729 8.96109 68.2548 8.20907C65.7806 7.45705 63.6624 7.21021 63.6624 7.10688C64.1266 7.06606 64.5944 7.09119 65.0516 7.18151C67.2704 7.47683 69.4253 8.13629 71.4294 9.13332C71.8689 9.30984 72.2792 9.55177 72.6464 9.85089Z" fill="#263238"/>
<path d="M70.7636 23.3987C70.1576 23.2215 69.5633 23.0068 68.984 22.7558C67.5606 22.2323 66.1076 21.7934 64.6326 21.4412C63.1549 21.0948 61.6577 20.838 60.1492 20.6719C59.5193 20.6339 58.8924 20.5572 58.272 20.4423C58.9033 20.3708 59.5408 20.3708 60.1721 20.4423C63.2344 20.6464 66.2414 21.3584 69.0701 22.5491C69.6667 22.7632 70.2352 23.0485 70.7636 23.3987Z" fill="#263238"/>
<path d="M47.4509 21.0795C47.4509 21.0451 47.9102 21.0795 48.6966 20.8442C49.8057 20.511 50.8205 19.9209 51.6588 19.122C52.8939 17.9319 53.8998 16.525 54.6267 14.9715C55.528 13.2493 56.3489 11.2459 57.6922 9.40886C58.9392 7.67546 60.4569 6.15392 62.1871 4.90249C63.6048 3.88323 65.1485 3.0516 66.7796 2.42829C67.8716 2.01041 68.9995 1.69334 70.1493 1.48107C70.5569 1.40645 70.8784 1.37775 71.0965 1.34905C71.2051 1.33381 71.3152 1.33381 71.4237 1.34905C71.0146 1.46647 70.5985 1.55849 70.178 1.62459C69.0477 1.88094 67.9399 2.22842 66.8657 2.66364C65.2764 3.31171 63.7726 4.1523 62.388 5.16655C60.6972 6.41302 59.2116 7.91606 57.9849 9.62128C56.6646 11.4181 55.8437 13.4101 54.9195 15.1322C54.1661 16.7081 53.1199 18.1264 51.8368 19.3114C50.9625 20.1112 49.9032 20.6813 48.754 20.9705C48.4431 21.0431 48.1259 21.0854 47.8068 21.0968C47.688 21.1081 47.5681 21.1023 47.4509 21.0795Z" fill="#455A64"/>
<path d="M88.8521 17.5031C88.8062 17.4515 89.8682 16.7339 91.2345 15.2069C92.9992 13.2301 94.284 10.8726 94.9888 8.31814C95.2046 7.59191 95.3072 6.83678 95.2931 6.0793C95.2904 5.39576 95.0802 4.72917 94.6903 4.16769C94.3206 3.67731 93.7937 3.32875 93.1978 3.1803C92.6727 3.04664 92.1262 3.01931 91.5904 3.09992C90.8025 3.24415 90.0391 3.49927 89.3229 3.85769C89.0604 4.0006 88.7857 4.11971 88.502 4.2136C88.7411 4.03309 88.9967 3.87548 89.2654 3.74287C89.9798 3.33214 90.7549 3.03761 91.5617 2.8703C92.1329 2.76815 92.7189 2.78377 93.2839 2.91622C93.9479 3.06703 94.5387 3.44462 94.9544 3.98398C95.383 4.59368 95.6208 5.31699 95.6375 6.06208C95.6613 6.83736 95.5664 7.61171 95.3562 8.35833C94.6468 10.97 93.3063 13.3672 91.4526 15.3389C90.896 15.9353 90.2891 16.4827 89.6386 16.975C89.3991 17.1826 89.1349 17.36 88.8521 17.5031Z" fill="#455A64"/>
</svg>
